<?xml version="1.0" encoding="utf-8"?>
<!-- Generator: Adobe Illustrator 22.0.1, SVG Export Plug-In . SVG Version: 6.00 Build 0)  -->
<svg version="1.1" xmlns="http://www.w3.org/2000/svg" xmlns:xlink="http://www.w3.org/1999/xlink" x="0px" y="0px"
	 viewBox="0 0 1000 1000" style="enable-background:new 0 0 1000 1000;" xml:space="preserve">
<style type="text/css">
	.st0{fill:#3F9DDD;}
</style>
<g id="Layer_2">
	<ellipse cx="504.3" cy="509.6" rx="254.2" ry="357"/>
</g>
<g id="Layer_1">
	<g>
		<path class="st0" d="M500,0C224.2,0,0,224.2,0,500s224.2,500,500,500s500-224.2,500-500S775.8,0,500,0z M627.3,717.9
			c-16.8,20-36.8,36.8-57.9,52.7c-16.8,11.5-34.7,23.2-52.7,33.7c-11.5,7.3-24.2,6.3-36.8-1c-29.5-19-57.9-40-84.2-64.2
			c-7.3-7.3-14.7-14.7-21-21c-13.7-13.7-16.8-28.5-14.7-47.3c14.7-99,39-196.8,64.2-293.7c2.1-6.3,3.2-13.7,6.3-20
			c2.1-5.3,1-9.5-2.1-13.7c-17.9-25.3-30.5-53.7-41-82.1c-10.5-29.5,7.3-57.9,35.8-61c24.2-2.1,48.5-5.3,72.7-8.5c1,0,3.2,0,4.2,0
			c26.3,0,52.7,4.2,79,8.5c26.3,5.3,42.1,30.5,34.7,55.8c-9.5,31.5-23.2,61-43.2,88.5c-2.1,3.2-3.2,6.3-2.1,11.5
			c16.8,65.3,33.7,131.5,48.5,197.9c9.5,40,15.8,81,22.1,122.1C643.2,691.5,637.9,705.3,627.3,717.9z"/>
		<path class="st0" d="M603.2,600c-15.8-81-36.8-160-59-240c-2.1,0-4.2,0-6.3,0c-26.3,0-51.5,0-77.9,0c-4.2,0-6.3,1-7.3,5.3
			C423.2,468.5,398,571.6,382.1,678c-1,9.5,1,16.8,7.3,23.2c28.5,31.5,62.1,56.8,97.9,79c8.5,5.3,15.8,4.2,22.1,0
			c14.7-9.5,29.5-20,44.2-30.5c21-14.7,40-32.7,57.9-51.5c4.2-5.3,7.3-10.5,6.3-16.8C612.7,653.7,608.5,626.3,603.2,600z"/>
		<path class="st0" d="M451.5,333.7c14.7,0,29.5,0,45.3,0c14.7,0,29.5,0,45.3,0c2.1,0,5.3-1,7.3-3.2c17.9-24.2,30.5-51.5,40-80
			c4.2-11.5-2.1-23.2-14.7-25.3c-22.1-4.2-44.2-7.3-66.3-8.5c-28.5-2.1-55.8,3.2-83.2,8.5c-14.7,3.2-21,13.7-16.8,27.3
			c8.5,27.3,20,53.7,36.8,77.9C446.3,331.5,449.5,333.7,451.5,333.7z"/>
	</g>
</g>
</svg>
