<?xml version="1.0" encoding="utf-8"?>
<!-- Generator: Adobe Illustrator 22.0.1, SVG Export Plug-In . SVG Version: 6.00 Build 0)  -->
<svg version="1.1" xmlns="http://www.w3.org/2000/svg" xmlns:xlink="http://www.w3.org/1999/xlink" x="0px" y="0px"
	 viewBox="0 0 1000 1000" style="enable-background:new 0 0 1000 1000;" xml:space="preserve">
<style type="text/css">
	.st0{fill:#E74C3C;}
</style>
<g id="Layer_2">
	<path d="M838.6,946.1h-683V59.6c132.8-29.7,241.6-29.3,313.5-24c76.8,5.7,133.5,10.4,198,42c108.2,53,163.8,145.3,187.5,192
		C849.3,495.1,844,720.6,838.6,946.1z"/>
</g>
<g id="Layer_1">
	<g>
		<g transform="translate(0.000000,511.000000) scale(0.100000,-0.100000)">
			<path class="st0" d="M1978.4,4967.3c-445-128.1-802.4-530.5-865.4-980c-29.2-213.5-29.2-7541,0-7754.5
				c49.5-346.2,307.9-717,618.1-881.1c283.2-148.3,112.4-141.6,3270.4-141.6c2535.4,0,2874.8,4.5,2998.4,36
				c395.6,101.1,712.5,406.8,863.1,833.9c33.7,98.9,38.2,375.4,42.7,3333.3c6.7,3050.1,4.5,3229.9-31.5,3297.4
				c-33.7,58.4-1706,1688-2229.7,2171.3l-139.2,128l-2196-2.3C2299.8,5007.7,2102.1,5003.3,1978.4,4967.3z M6103,3937.8
				c0-577.6,24.7-739.5,137.1-971c94.4-188.8,323.7-422.6,508-517c249.5-125.9,337.2-137.1,989-137.1h591.2V-694.6
				c0-3337.8,9-3119.8-150.6-3306.4c-42.7-51.7-130.4-121.4-195.5-155.1l-114.6-60.7l-2818.6-6.7c-2450-4.5-2836.6,0-2935.5,29.2
				c-148.4,42.7-303.4,177.6-379.9,330.4L1675-3747V110v3857.1l58.4,116.9c71.9,143.9,231.5,287.7,366.4,328.2
				c85.4,27,440.6,33.7,2054.4,33.7l1948.8,2.2V3937.8z"/>
			<path class="st0" d="M3372,3764.8c-123.6-58.4-283.2-200-334.9-301.2c-56.2-110.1-83.2-265.2-60.7-359.6
				c15.7-74.2,11.2-92.2-27-114.6c-36-24.7-40.5-45-29.2-121.4c9-51.7,42.7-155.1,78.7-229.3s80.9-175.3,96.7-222.5
				c15.7-47.2,67.4-130.4,114.6-184.3c110.1-123.6,240.5-175.3,418.1-161.8c218,15.7,366.4,141.6,433.8,366.4
				c15.7,49.5,53.9,114.6,87.7,146.1c71.9,69.7,132.6,296.7,94.4,355.1c-11.2,22.5-18,125.9-11.2,242.8
				c11.2,233.8-24.7,348.4-128.1,400.1c-31.5,18-83.2,58.4-114.6,92.2C3853,3823.2,3581,3863.7,3372,3764.8z"/>
			<path class="st0" d="M2909,1957.6c-116.9-58.4-258.5-125.9-314.7-150.6c-107.9-51.7-188.8-152.8-220.3-278.7
				c-11.2-45-29.2-200-36-343.9l-15.7-265.2h1263.2h1263.2l-9,298.9c-6.7,267.5-13.5,312.4-65.2,411.3
				c-62.9,123.6-92.2,139.4-721.5,431.5c-9,4.5-74.2-175.3-143.9-397.8c-71.9-224.8-137.1-406.8-143.8-406.8s-36,60.7-60.7,132.6
				l-47.2,132.6l53.9,107.9c65.2,130.4,67.4,152.8,9,211.3c-85.4,85.4-292.2,36-292.2-71.9c0-24.7,22.5-89.9,49.5-143.9
				c47.2-96.6,47.2-98.9,6.7-233.8c-22.5-76.4-47.2-141.6-56.2-146.1s-33.7,49.5-53.9,119.1c-148.3,481-222.5,701.3-236,699
				C3131.5,2063.3,3028.1,2016.1,2909,1957.6z"/>
			<path class="st0" d="M2542.6,379.7C2405.5,337,2311.1,190.9,2335.8,56C2356-49.6,2477.4-153,2601-171
				c53.9-6.7,1180-11.2,2501.7-6.7c2679.2,6.7,2503.9-4.5,2582.6,161.8c44.9,96.7,44.9,155.1,0,251.7
				c-78.7,166.3,103.4,155.1-2627.6,159.6C3709.2,397.7,2578.6,391,2542.6,379.7z"/>
			<path class="st0" d="M2493.2-786.8c-74.2-33.7-101.1-62.9-132.6-143.8c-47.2-125.9-20.2-231.5,80.9-319.2l69.7-56.2h2506.2
				c2321.9,0,2510.7,2.2,2571.3,38.2c69.7,40.5,132.6,150.6,132.6,231.5c0,76.4-65.2,195.5-130.4,240.5
				c-58.5,38.2-191.1,40.4-2533.1,45C2677.5-744.1,2580.8-746.3,2493.2-786.8z"/>
			<path class="st0" d="M2490.9-1926.4c-184.3-89.9-209-334.9-49.4-469.8l69.7-56.2h2515.2h2515.2l80.9,74.2
				c146.1,132.6,114.6,361.9-58.4,447.3c-74.2,38.2-240.5,40.5-2539.9,40.5C2828.1-1890.4,2556.1-1894.9,2490.9-1926.4z"/>
			<path class="st0" d="M2461.7-3077.2c-166.3-80.9-197.8-292.2-67.4-438.3l62.9-71.9l1463.3-6.7l1463.3-4.5l80.9,74.2
				c152.9,139.4,114.7,377.6-69.7,456.3c-65.2,27-307.9,31.5-1465.5,31.5C2652.7-3036.7,2533.6-3039,2461.7-3077.2z"/>
		</g>
	</g>
</g>
</svg>
